<svg id="Group_518" data-name="Group 518" xmlns="http://www.w3.org/2000/svg" xmlns:xlink="http://www.w3.org/1999/xlink" width="24.259" height="19.757" viewBox="0 0 24.259 19.757">
  <defs>
    <clipPath id="clip-path">
      <rect id="Rectangle_717" data-name="Rectangle 717" width="24.259" height="19.757" fill="none"/>
    </clipPath>
  </defs>
  <g id="Group_418" data-name="Group 418" clip-path="url(#clip-path)">
    <path id="Path_877" data-name="Path 877" d="M0,17.529a10.181,10.181,0,0,0,7.324-2.062,5.061,5.061,0,0,1-3.63-1.7,4.353,4.353,0,0,1-.985-1.756,5.723,5.723,0,0,0,2.178-.1A5.066,5.066,0,0,1,1.633,9.563a4.787,4.787,0,0,1-.7-2.6,5.041,5.041,0,0,0,2.215.591A5.056,5.056,0,0,1,1.091,4.52,4.97,4.97,0,0,1,1.64.913a14.212,14.212,0,0,0,10.235,5.21c-.016-.512-.063-1-.042-1.484a4.977,4.977,0,0,1,8.476-3.195.3.3,0,0,0,.312.09A10.242,10.242,0,0,0,23.363.5c.059-.033.121-.061.229-.116a5.005,5.005,0,0,1-2.057,2.66l.021.057c.294-.055.59-.1.881-.167.308-.072.613-.156.914-.251s.574-.206.908-.327A9.54,9.54,0,0,1,22.775,4.1c-.268.246-.553.474-.839.7a.338.338,0,0,0-.15.316,14.2,14.2,0,0,1-8.258,13.4,14.29,14.29,0,0,1-7.816,1.112A13.823,13.823,0,0,1,.229,17.688C.165,17.649.1,17.6,0,17.529" transform="translate(0 0)"/>
  </g>
</svg>
