<svg id="Group_519" data-name="Group 519" xmlns="http://www.w3.org/2000/svg" xmlns:xlink="http://www.w3.org/1999/xlink" width="23.413" height="20.262" viewBox="0 0 23.413 20.262">
  <defs>
    <clipPath id="clip-path">
      <rect id="Rectangle_722" data-name="Rectangle 722" width="23.413" height="20.262" fill="none"/>
    </clipPath>
  </defs>
  <g id="Group_428" data-name="Group 428" clip-path="url(#clip-path)">
    <path id="Path_882" data-name="Path 882" d="M.1,8.425q2.441-.948,4.889-1.879Q13.366,3.338,21.744.133a1.923,1.923,0,0,1,.409-.116,1.031,1.031,0,0,1,1.26,1.134,8.634,8.634,0,0,1-.238,1.541Q21.454,10.8,19.715,18.9a3.254,3.254,0,0,1-.28.8.942.942,0,0,1-1.2.508,2.44,2.44,0,0,1-.721-.343c-1.743-1.262-3.476-2.537-5.212-3.808-.07-.051-.14-.1-.226-.162-.069.061-.134.115-.2.173q-1.331,1.27-2.661,2.542A1.3,1.3,0,0,1,8.255,19c.023-.343.045-.679.068-1.014.106-1.484.209-2.968.324-4.45a.521.521,0,0,1,.158-.316q5.045-4.544,10.1-9.079c.024-.021.056-.037.07-.063.064-.117.122-.237.182-.356a1.283,1.283,0,0,0-.432-.074,1.4,1.4,0,0,0-.469.215Q11.97,7.795,5.684,11.724a.47.47,0,0,1-.341.059C3.56,11.239,1.78,10.682,0,10.128" transform="translate(0 -0.001)"/>
  </g>
</svg>
