<svg xmlns="http://www.w3.org/2000/svg" xmlns:xlink="http://www.w3.org/1999/xlink" width="22.302" height="24.332" viewBox="0 0 22.302 24.332">
  <defs>
    <clipPath id="clip-path">
      <rect id="Rectangle_748" data-name="Rectangle 748" width="22.302" height="24.332" fill="none"/>
    </clipPath>
  </defs>
  <g id="Group_520" data-name="Group 520" clip-path="url(#clip-path)">
    <path id="Path_1034" data-name="Path 1034" d="M2.318,0H19.939c.06.016.119.037.18.048A2.676,2.676,0,0,1,22.3,2.626q.006,10.734,0,21.468c0,.057-.013.113-.028.238l-5.828-5.024-.037.018.655,2.149H2.772c-.119,0-.238,0-.356-.007a2.5,2.5,0,0,1-2.349-2A8.414,8.414,0,0,1,0,18Q0,10.331,0,2.66A2.434,2.434,0,0,1,1.143.47,6.6,6.6,0,0,1,2.318,0M6.141,7.345a8.939,8.939,0,0,1,3.114-1.5.662.662,0,0,0-.346-.084A6.48,6.48,0,0,0,5.7,6.96a.649.649,0,0,0-.2.224,16.1,16.1,0,0,0-1.779,6.37,1.375,1.375,0,0,0,.535,1.227,5,5,0,0,0,3.2,1.2.227.227,0,0,0,.164-.063c.256-.306.5-.619.757-.934-1.3-.569-1.87-.945-2.1-1.379a11.244,11.244,0,0,0,4.886,1.31,9.542,9.542,0,0,0,4.863-1.346,4.4,4.4,0,0,1-2.171,1.342c.236.293.458.55.658.822a.426.426,0,0,0,.425.178,5.291,5.291,0,0,0,3.57-1.608.472.472,0,0,0,.149-.373,15.509,15.509,0,0,0-1.8-6.746A.508.508,0,0,0,16.716,7a6.243,6.243,0,0,0-3.269-1.21,1.076,1.076,0,0,0-.344.1l.015.069c.259.088.522.169.778.266s.53.209.787.329.5.245.734.386.46.3.689.451a11.873,11.873,0,0,0-9.965-.049" transform="translate(-0.001)"/>
    <path id="Path_1035" data-name="Path 1035" d="M120.83,162.589a1.319,1.319,0,0,1-1.312,1.342,1.355,1.355,0,1,1,1.312-1.342" transform="translate(-110.717 -150.995)"/>
    <path id="Path_1036" data-name="Path 1036" d="M192.088,162.584a1.306,1.306,0,1,1,1.294,1.357,1.33,1.33,0,0,1-1.294-1.357" transform="translate(-179.899 -151.006)"/>
  </g>
</svg>
