<svg id="Group_524" data-name="Group 524" xmlns="http://www.w3.org/2000/svg" xmlns:xlink="http://www.w3.org/1999/xlink" width="24.321" height="24.316" viewBox="0 0 24.321 24.316">
  <defs>
    <clipPath id="clip-path">
      <rect id="Rectangle_725" data-name="Rectangle 725" width="24.321" height="24.316" fill="none"/>
    </clipPath>
  </defs>
  <g id="Group_434" data-name="Group 434" clip-path="url(#clip-path)">
    <path id="Path_887" data-name="Path 887" d="M9.17,0h6.08c.133.012.265.026.4.035C16.64.1,17.642.1,18.623.25A6.178,6.178,0,0,1,24,5.279a14.578,14.578,0,0,1,.282,2.968c.006.307.028.613.043.92v6.08c-.015.283-.037.566-.042.849a13.573,13.573,0,0,1-.292,2.969,6.192,6.192,0,0,1-4.6,4.844,12.075,12.075,0,0,1-3.126.361q-3.572.039-7.145.047a17.159,17.159,0,0,1-3.637-.286A6.211,6.211,0,0,1,.373,19.184,15.953,15.953,0,0,1,.01,15.343C0,13.222,0,11.1.006,8.98A18.725,18.725,0,0,1,.287,5.461,6.35,6.35,0,0,1,5.462.277,18.037,18.037,0,0,1,8.581.038c.2,0,.393-.025.589-.038M22.088,11.81h.031c0-.9.028-1.806-.007-2.707a28.243,28.243,0,0,0-.229-3.191,3.816,3.816,0,0,0-2.991-3.334,10.05,10.05,0,0,0-2.1-.333c-1.683-.067-3.369-.073-5.053-.083-1.2-.008-2.406.01-3.609.029a11.1,11.1,0,0,0-2.66.283A3.835,3.835,0,0,0,2.6,5.109a10.756,10.756,0,0,0-.446,3.3c-.02,2.557-.027,5.114,0,7.67a12.79,12.79,0,0,0,.237,2.332,4.034,4.034,0,0,0,3.134,3.373,11.3,11.3,0,0,0,2.707.3c2.311.021,4.623.048,6.933.023a23.588,23.588,0,0,0,3.167-.226,3.976,3.976,0,0,0,3.489-3.254,11.892,11.892,0,0,0,.253-2.163c.038-1.55.012-3.1.012-4.654" transform="translate(0)"/>
    <path id="Path_888" data-name="Path 888" d="M99.7,93.266a6.236,6.236,0,1,1-6.226,6.24,6.231,6.231,0,0,1,6.226-6.24m4.054,6.232a4.046,4.046,0,1,0-4.034,4.052,4.031,4.031,0,0,0,4.034-4.052" transform="translate(-87.538 -87.348)"/>
    <path id="Path_889" data-name="Path 889" d="M272.454,66.45a1.454,1.454,0,0,1,.014,2.909,1.454,1.454,0,1,1-.014-2.909" transform="translate(-253.809 -62.233)"/>
  </g>
</svg>
