<svg xmlns="http://www.w3.org/2000/svg" xmlns:xlink="http://www.w3.org/1999/xlink" width="24.32" height="24.326" viewBox="0 0 24.32 24.326">
  <defs>
    <clipPath id="clip-path">
      <rect id="Rectangle_724" data-name="Rectangle 724" width="24.32" height="24.326" fill="none"/>
    </clipPath>
  </defs>
  <g id="Group_523" data-name="Group 523" transform="translate(-4)">
    <g id="Group_432" data-name="Group 432" transform="translate(4)" clip-path="url(#clip-path)">
      <path id="Path_886" data-name="Path 886" d="M21.66,24.326h-4.94V15.964c.706,0,1.379,0,2.051,0a.276.276,0,0,0,.315-.2c.44-1.126.893-2.248,1.341-3.371.028-.07.05-.142.085-.241H16.721V11.9q0-1.318,0-2.637c0-.664.2-.883.874-.9.633-.014,1.266,0,1.9-.005h.248v-3.8c-1.008,0-2,0-2.986,0a4.553,4.553,0,0,0-4.595,4.6c0,.911,0,1.821,0,2.732v.279H9.132v3.8h3.029v8.359h-9.5a.873.873,0,0,0-.131-.044A3.034,3.034,0,0,1,0,21.3Q0,12.157,0,3.015A3.022,3.022,0,0,1,3.015,0q9.152-.009,18.3,0a3.033,3.033,0,0,1,2.9,2.249c.036.136.069.273.1.409v19a1.043,1.043,0,0,0-.045.131,3.021,3.021,0,0,1-2.184,2.419c-.141.045-.287.074-.431.11" transform="translate(0 0)"/>
    </g>
  </g>
</svg>
