<svg xmlns="http://www.w3.org/2000/svg" viewBox="0 0 256 256.01"><g id="Layer_2" data-name="Layer 2"><g id="Layer_1-2" data-name="Layer 1"><path d="M0,128A128,128,0,0,0,76.62,245.24c-.36-8.94-.06-19.67,2.23-29.39,2.46-10.39,16.47-69.75,16.47-69.75a49.14,49.14,0,0,1-4.09-20.25c0-19,11-33.14,24.68-33.14,11.65,0,17.27,8.75,17.27,19.22,0,11.7-7.46,29.21-11.3,45.42-3.21,13.58,6.81,24.66,20.2,24.66,24.25,0,40.59-31.15,40.59-68.06,0-28-18.9-49-53.27-49-38.82,0-63,29-63,61.3,0,11.15,3.29,19,8.44,25.11,2.36,2.79,2.69,3.92,1.84,7.13-.62,2.36-2,8-2.61,10.27-.85,3.25-3.48,4.4-6.41,3.21C49.76,164.62,41.44,145,41.44,123c0-36.36,30.66-80,91.48-80,48.87,0,81,35.37,81,73.33,0,50.21-27.91,87.72-69.06,87.72-13.82,0-26.82-7.47-31.27-15.95,0,0-7.44,29.49-9,35.19-2.71,9.87-8,19.73-12.88,27.42A128,128,0,1,0,0,128Z"/></g></g></svg>