<svg id="Group_526" data-name="Group 526" xmlns="http://www.w3.org/2000/svg" xmlns:xlink="http://www.w3.org/1999/xlink" width="21.346" height="24.288" viewBox="0 0 21.346 24.288">
  <defs>
    <clipPath id="clip-path">
      <rect id="Rectangle_718" data-name="Rectangle 718" width="21.346" height="24.288" fill="none"/>
    </clipPath>
  </defs>
  <g id="Group_420" data-name="Group 420" clip-path="url(#clip-path)">
    <path id="Path_878" data-name="Path 878" d="M15.187,0A6.123,6.123,0,0,0,20.3,6.009a7.28,7.28,0,0,0,.873.081c.112.007.177.028.177.159,0,1.235,0,2.47-.007,3.705a.313.313,0,0,1-.029.082A9.7,9.7,0,0,1,18.1,9.509a10.343,10.343,0,0,1-2.909-1.55c0,.132,0,.215,0,.3.008,2.763.01,5.526.027,8.289a7.329,7.329,0,0,1-1.161,4.214,7.409,7.409,0,0,1-6.908,3.515A7.495,7.495,0,0,1,5.418,9.59a7.929,7.929,0,0,1,3.053-.272c.086.009.17.029.269.047v3.994c-.073-.014-.139-.024-.2-.04a3.589,3.589,0,1,0,2.6,4.18,5.086,5.086,0,0,0,.073-.921q.01-8.111.012-16.223c0-.118.011-.237.017-.355Z" transform="translate(0)"/>
  </g>
</svg>
