<svg id="ICON" height="512" viewBox="0 0 32 32" width="512" xmlns="http://www.w3.org/2000/svg"><path d="m29.091 14.602c.96-1.229 1.177-2.823.58-4.264s-1.878-2.415-3.426-2.605c-1.036-.127-1.85-.94-1.978-1.978-.19-1.548-1.164-2.829-2.605-3.425-1.44-.597-3.035-.381-4.264.58-.824.643-1.973.643-2.797 0-1.229-.96-2.824-1.178-4.264-.58-1.441.597-2.415 1.877-2.605 3.425-.128 1.037-.941 1.851-1.978 1.978-1.548.19-2.829 1.165-3.426 2.605s-.38 3.035.58 4.264c.643.824.643 1.974 0 2.797-.96 1.229-1.177 2.823-.58 4.264s1.878 2.415 3.426 2.605c1.036.127 1.85.94 1.978 1.978.19 1.548 1.164 2.829 2.605 3.425.537.223 1.095.332 1.648.332.93 0 1.845-.31 2.615-.912.824-.643 1.973-.643 2.797 0 1.229.959 2.822 1.177 4.264.58s2.415-1.877 2.605-3.425c.128-1.037.941-1.851 1.978-1.978 1.548-.19 2.829-1.165 3.426-2.605s.38-3.035-.58-4.264c-.643-.824-.643-1.974 0-2.797zm-11.091 5.398c0-1.103.897-2 2-2s2 .897 2 2-.897 2-2 2-2-.897-2-2zm3.707-8.293-10 10c-.195.195-.451.293-.707.293s-.512-.098-.707-.293c-.391-.391-.391-1.023 0-1.414l10-10c.391-.391 1.023-.391 1.414 0s.391 1.023 0 1.414zm-7.707.293c0 1.103-.897 2-2 2s-2-.897-2-2 .897-2 2-2 2 .897 2 2z"/></svg>