<svg id="Group_527" data-name="Group 527" xmlns="http://www.w3.org/2000/svg" xmlns:xlink="http://www.w3.org/1999/xlink" width="24.315" height="23.312" viewBox="0 0 24.315 23.312">
  <defs>
    <clipPath id="clip-path">
      <rect id="Rectangle_721" data-name="Rectangle 721" width="24.315" height="23.312" fill="none"/>
    </clipPath>
  </defs>
  <g id="Group_426" data-name="Group 426" clip-path="url(#clip-path)">
    <path id="Path_881" data-name="Path 881" d="M0,11.177c.061-.429.106-.861.185-1.287a11.7,11.7,0,0,1,4.8-7.581A11.95,11.95,0,0,1,12.919.024,12.085,12.085,0,0,1,24.141,9.913a11.854,11.854,0,0,1-6.586,12.714c-.464.218-.948.392-1.424.586a1.216,1.216,0,0,1-.157.052.6.6,0,0,1-.831-.639c0-1.045.006-2.09.008-3.135a4.666,4.666,0,0,0-.021-.5,2.753,2.753,0,0,0-.752-1.742c.586-.124,1.169-.217,1.735-.371A4.722,4.722,0,0,0,19.8,12.465a10.911,10.911,0,0,0,0-1.915,4.064,4.064,0,0,0-1.035-2.275.306.306,0,0,1-.078-.334A4.444,4.444,0,0,0,18.569,5.1c-.07-.2-.23-.193-.362-.165a7.588,7.588,0,0,0-1.347.341c-.523.216-1,.532-1.509.791a.583.583,0,0,1-.369.059,11.8,11.8,0,0,0-5.687,0,.535.535,0,0,1-.366-.066A7.6,7.6,0,0,0,6.517,4.983c-.7-.146-.786-.1-.96.589A4.214,4.214,0,0,0,5.6,8a.244.244,0,0,1-.037.2,4.968,4.968,0,0,0-1.119,4.055A5.865,5.865,0,0,0,5.3,14.922a4.834,4.834,0,0,0,2.96,1.994c.53.14,1.076.225,1.633.339a2.726,2.726,0,0,0-.714,1.463.261.261,0,0,1-.146.157,2.555,2.555,0,0,1-3.4-1.023,2.385,2.385,0,0,0-1.765-1.234,1.33,1.33,0,0,0-.445.028c-.231.05-.272.2-.109.378a1.388,1.388,0,0,0,.307.259,3.058,3.058,0,0,1,1.316,1.6,3.051,3.051,0,0,0,3.4,1.908c.251-.024.5-.065.769-.1.006.057.018.117.019.176.007.57.014,1.14.018,1.71,0,.587-.368.868-.92.668A11.877,11.877,0,0,1,.3,14.54C.16,14,.124,13.432.04,12.877.029,12.8.014,12.725,0,12.649V11.177" transform="translate(0 0)"/>
  </g>
</svg>
