<?xml version="1.0" encoding="iso-8859-1"?>
<!-- Generator: Adobe Illustrator 19.0.0, SVG Export Plug-In . SVG Version: 6.00 Build 0)  -->
<svg version="1.1" id="Capa_1" xmlns="http://www.w3.org/2000/svg" xmlns:xlink="http://www.w3.org/1999/xlink" x="0px" y="0px"
	 viewBox="0 0 494.08 494.08" style="enable-background:new 0 0 494.08 494.08;" xml:space="preserve">
<g>
	<g>
		<path d="M247.253,0C110.817-0.118,0.118,110.39,0,246.827C-0.118,383.263,110.39,493.962,246.827,494.08
			c136.436,0.118,247.135-110.39,247.253-246.827c0-0.071,0-0.142,0-0.213C493.963,110.736,383.558,0.235,247.253,0z
			 M257.493,375.04v34.347c0,5.891-4.776,10.667-10.667,10.667c-5.891,0-10.667-4.776-10.667-10.667v-89.6h21.333V375.04z
			 M396.587,195.2c-0.117,61.1-49.62,110.603-110.72,110.72h-76.373c-61.266,0.354-111.218-49.026-111.572-110.291
			c-0.001-0.143-0.001-0.286-0.002-0.429v-48h48.853c43.11-0.092,82.337,24.894,100.48,64c18.143-39.106,57.37-64.092,100.48-64
			h48.853V195.2z"/>
	</g>
</g>
<g>
</g>
<g>
</g>
<g>
</g>
<g>
</g>
<g>
</g>
<g>
</g>
<g>
</g>
<g>
</g>
<g>
</g>
<g>
</g>
<g>
</g>
<g>
</g>
<g>
</g>
<g>
</g>
<g>
</g>
</svg>
